<svg version="1" xmlns="http://www.w3.org/2000/svg" width="1365.333" height="1365.333" viewBox="0 0 1024.000000 1024.000000"><path d="M483 41.3c-.3.3-4.8.8-10 1.2-5.2.4-10.2.8-11 1-3.7.5-11.1 1.7-18 3-11.3 2.2-12.2 2.4-16.5 3.5-2.2.6-4.8 1.2-5.8 1.5-5.5 1.3-20.8 6.3-31.2 10.2-63 23.8-120.7 68.9-166.4 130-8.4 11.3-22.6 32.3-27.3 40.6-20 34.8-34.4 66.8-46 102.2-6.8 20.7-15.4 54.5-18.3 72.4-.3 1.9-.7 3.7-.9 4-.2.3-.7 3.3-1.1 6.6-.3 3.2-.8 6.2-1 6.5-.1.3-.6 3.6-1 7.5-.4 3.8-.8 7.2-1 7.5-.2.3-.6 3.9-1 8-.3 4.1-.8 8.6-1 10-2.7 18.8-2.7 86.7 0 109 .2 1.9.7 6.4 1 10 .4 3.6.8 7.6 1 9 .2 1.4.6 4.5 1 7 .3 2.5.8 5.6 1 7 .3 1.4.7 4.1 1 6 1.6 10 3.7 21.6 6 32 6.5 30.2 20.7 73.8 31.9 98.4 1.4 3.1 2.6 5.9 2.6 6.1 0 1.2 16.8 34 22.2 43.5 5.9 10.2 26.7 41.9 30.8 47 1.1 1.4 5.2 6.5 9.1 11.5 45.8 58.1 108.4 103 171.9 123.3 16.8 5.4 22.2 6.9 31 8.6 18.3 3.7 25.1 4.7 44.5 6.4 4.4.4 49.9.8 101 .9 101 .2 101.5.2 121.5-5.4C757.9 962 807.3 919 842.5 856c12.5-22.5 25.9-57 30.1-77.5.2-1.1.6-3.1.9-4.5.8-4 1.4-7.2 2-11 .3-2 .7-4.6 1-5.8.4-2.1 1.6-15.8 1.9-21.2.1-1.4-.1-3.2-.5-4-.6-1.3-28.6-1.5-244.2-1.5H390.2L389 727c-4.5-13.7-11.3-36.4-12.6-42.2-.2-1-.6-2.6-.9-3.5-1.5-5.6-5.5-22.6-6.4-27.3-.6-3-1.3-6.6-1.6-8-.3-1.4-.9-5-1.5-8-.5-3-1.2-6.9-1.5-8.5-.3-1.7-.8-4.6-1.1-6.5-.3-1.9-.9-5.4-1.4-7.7l-.7-4.3 3.6-.1c2 0 85.6-.1 185.7-.2 180.6-.2 182.2-.2 184.5-2.2 12-10.7 23.1-24.9 30.1-39 3.9-7.7 9.3-22.9 10.2-28.9.4-2.1.8-4.1 1-4.5 1.6-2.5 2.7-31.5 1.5-38.6-.4-2.2-1-5.8-1.3-8-3.4-24.1-16.1-48.8-34.8-67.8l-8.7-8.8-185.5.3c-185 .3-185.6.3-185.6-1.7 0-1.1.7-6.1 1.6-11 .8-5 1.7-10.4 2-12 .4-2.4 3.4-16.7 6.9-33 1.6-7.7 5.3-21.2 9.1-34 6.5-21.5 7.6-24.9 8.6-26.1.6-.8 57.7-1.1 208.6-1.1 114.2 0 209.9-.4 212.6-.7 22.7-3.2 45.6-21.8 56.6-46.1 2.8-6 5.8-14.2 6.6-18 3-13.1 3.7-18.9 4-33.5.4-21.9-1.9-33.9-9.7-50.7-8.8-19.2-22.3-35.8-42.7-52.5-3-2.4-18.9-13-24.2-16-12.3-7.1-30.5-15.3-44-19.8-11.9-3.9-33.7-9.7-39.5-10.4-1.6-.2-4.1-.7-5.5-1-1.4-.3-4.1-.7-6-1-1.9-.3-5.5-.7-8-1.1-2.5-.3-6.7-.8-9.5-1.1-6.1-.6-205.9-1.6-206.5-1.1z"/></svg>