<?xml version="1.0" encoding="utf-8"?>
<!-- Generator: Adobe Illustrator 15.1.0, SVG Export Plug-In . SVG Version: 6.00 Build 0)  -->
<!DOCTYPE svg PUBLIC "-//W3C//DTD SVG 1.1//EN" "http://www.w3.org/Graphics/SVG/1.1/DTD/svg11.dtd">
<svg version="1.1" id="Lager_1" xmlns="http://www.w3.org/2000/svg" xmlns:xlink="http://www.w3.org/1999/xlink" x="0px" y="0px"
	 width="3072px" height="1024px" viewBox="0 0 3072 1024" enable-background="new 0 0 3072 1024" xml:space="preserve">
<g>
	<g>
		<path fill="#F5F5F5" d="M1501.621,518.955c23.701,23.504,35.555,58.758,35.555,105.764v184.408h-75.33V634.361
			c0-28.117-6.233-49.312-18.682-63.578c-12.458-14.258-30.34-21.395-53.636-21.395c-25.311,0-45.603,8.342-60.866,25.01
			c-15.273,16.676-22.9,40.48-22.9,71.412v163.316h-75.331V634.361c0-28.117-6.233-49.312-18.682-63.578
			c-12.458-14.258-30.339-21.395-53.635-21.395c-25.716,0-46.103,8.238-61.169,24.709c-15.065,16.479-22.599,40.377-22.599,71.713
			v163.316h-75.33V487.316h71.714v40.981c12.053-14.465,27.119-25.509,45.198-33.146c18.079-7.628,38.164-11.45,60.265-11.45
			c24.105,0,45.499,4.52,64.182,13.56c18.682,9.039,33.446,22.402,44.294,40.076c13.258-16.875,30.33-30.029,51.225-39.473
			c20.886-9.436,43.993-14.162,69.304-14.162C1445.773,483.701,1477.911,495.452,1501.621,518.955z"/>
		<path fill="#F5F5F5" d="M1896.047,504.19c24.709,13.664,44.088,32.949,58.154,57.853c14.059,24.916,21.094,53.637,21.094,86.18
			c0,32.541-7.035,61.375-21.094,86.479c-14.066,25.113-33.445,44.502-58.154,58.154c-24.709,13.664-52.73,20.49-84.068,20.49
			c-43.391,0-77.742-14.463-103.053-43.391v156.086h-75.33V487.316h71.715v42.186c12.447-15.264,27.816-26.714,46.102-34.351
			c18.277-7.628,38.467-11.45,60.566-11.45C1843.316,483.701,1871.338,490.537,1896.047,504.19z M1871.941,721.143
			c17.871-18.477,26.816-42.789,26.816-72.92c0-30.133-8.945-54.436-26.816-72.92c-17.883-18.475-40.678-27.723-68.4-27.723
			c-18.08,0-34.35,4.125-48.814,12.355c-14.463,8.238-25.914,19.99-34.35,35.254c-8.438,15.273-12.656,32.947-12.656,53.033
			c0,20.094,4.219,37.768,12.656,53.031c8.436,15.273,19.887,27.025,34.35,35.256c14.465,8.238,30.734,12.354,48.814,12.354
			C1831.264,748.863,1854.059,739.625,1871.941,721.143z"/>
		<path fill="#F5F5F5" d="M2047.002,487.316h75.33v321.811h-75.33V487.316z"/>
		<path fill="#F5F5F5" d="M2407.373,483.701v71.713c-6.43-1.205-12.26-1.807-17.477-1.807c-29.33,0-52.23,8.541-68.701,25.611
			c-16.479,17.082-24.707,41.686-24.707,73.824v156.084h-75.33V487.316h71.713v47.006
			C2314.566,500.575,2352.73,483.701,2407.373,483.701z"/>
		<path fill="#F5F5F5" d="M2708.697,714.512l39.775,46.404c-14.068,17.279-32.148,30.34-54.238,39.172
			c-22.1,8.842-47.006,13.258-74.729,13.258c-35.357,0-66.496-7.023-93.408-21.092c-26.922-14.059-47.713-33.645-62.375-58.758
			c-14.67-25.104-21.996-53.531-21.996-85.273c0-31.338,7.129-59.559,21.395-84.672c14.256-25.104,33.945-44.689,59.059-58.758
			c25.104-14.058,53.531-21.092,85.273-21.092c30.133,0,57.553,6.534,82.262,19.586c24.709,13.059,44.293,31.743,58.758,56.045
			c14.463,24.312,21.695,52.73,21.695,85.273l-246.482,48.213c7.629,18.482,19.889,32.541,36.762,42.184
			c16.875,9.643,37.156,14.463,60.867,14.463C2656.268,749.465,2685.393,737.818,2708.697,714.512z M2540.26,571.084
			c-17.082,18.078-25.613,42.393-25.613,72.92v0.602l181.998-34.953c-5.227-19.68-15.771-35.555-31.639-47.609
			c-15.875-12.053-35.057-18.078-57.553-18.078C2579.732,543.965,2557.33,553.004,2540.26,571.084z"/>
	</g>
	<g>
		<path fill="#F5F5F5" d="M1030.613,424.379c-16.66-5.821-29.53-13.51-38.617-23.065l10.135-19.92
			c8.852,8.857,20.619,16.021,35.297,21.492c14.678,5.478,29.819,8.213,45.431,8.213c21.896,0,38.322-4.019,49.275-12.057
			c10.948-8.038,16.426-18.462,16.426-31.277c0-9.785-2.971-17.589-8.912-23.415c-5.94-5.82-13.225-10.31-21.842-13.454
			c-8.622-3.146-20.619-6.58-35.995-10.31c-18.407-4.658-33.085-9.141-44.033-13.455c-10.954-4.308-20.33-10.888-28.133-19.745
			c-7.809-8.851-11.707-20.848-11.707-35.995c0-12.346,3.26-23.589,9.785-33.724c6.52-10.135,16.54-18.228,30.055-24.288
			c13.509-6.056,30.283-9.087,50.323-9.087c13.979,0,27.663,1.923,41.062,5.767c13.395,3.845,24.987,9.146,34.772,15.901
			l-8.736,20.618c-10.255-6.754-21.203-11.821-32.851-15.202c-11.652-3.374-23.064-5.066-34.248-5.066
			c-21.438,0-37.568,4.139-48.401,12.405c-10.834,8.273-16.25,18.932-16.25,31.977c0,9.785,2.97,17.648,8.911,23.59
			c5.94,5.94,13.395,10.484,22.366,13.629c8.966,3.146,21.022,6.586,36.17,10.31c17.938,4.429,32.44,8.797,43.509,13.105
			c11.063,4.313,20.444,10.833,28.133,19.57c7.688,8.736,11.532,20.563,11.532,35.471c0,12.352-3.319,23.59-9.96,33.725
			c-6.64,10.134-16.834,18.172-30.578,24.113c-13.75,5.94-30.639,8.911-50.674,8.911
			C1064.686,433.116,1047.267,430.206,1030.613,424.379z"/>
		<path fill="#F5F5F5" d="M1252.348,420.709c-14.214-8.038-25.396-19.16-33.55-33.374c-8.157-14.208-12.231-30.284-12.231-48.228
			c0-17.938,4.074-34.013,12.231-48.227c8.153-14.208,19.336-25.276,33.55-33.199c14.208-7.918,30.169-11.883,47.877-11.883
			c17.703,0,33.664,3.965,47.878,11.883c14.208,7.923,25.336,18.991,33.374,33.199c8.038,14.214,12.057,30.289,12.057,48.227
			c0,17.943-4.019,34.02-12.057,48.228c-8.038,14.214-19.166,25.336-33.374,33.374c-14.214,8.038-30.175,12.057-47.878,12.057
			C1282.517,432.766,1266.556,428.748,1252.348,420.709z M1335.347,401.838c10.364-5.941,18.462-14.383,24.288-25.337
			c5.821-10.948,8.737-23.414,8.737-37.394c0-13.979-2.916-26.439-8.737-37.393c-5.826-10.948-13.924-19.396-24.288-25.337
			c-10.369-5.941-22.077-8.911-35.122-8.911c-13.05,0-24.758,2.97-35.121,8.911c-10.37,5.941-18.522,14.389-24.463,25.337
			c-5.941,10.953-8.912,23.414-8.912,37.393c0,13.979,2.971,26.445,8.912,37.394c5.94,10.954,14.093,19.396,24.463,25.337
			c10.363,5.94,22.071,8.911,35.121,8.911C1313.27,410.75,1324.978,407.779,1335.347,401.838z"/>
		<path fill="#F5F5F5" d="M1609.855,247.198v183.821h-23.764V397.47c-6.525,11.183-15.498,19.865-26.91,26.035
			c-11.418,6.176-24.462,9.261-39.14,9.261c-23.999,0-42.931-6.694-56.789-20.095c-13.864-13.395-20.793-33.024-20.793-58.886
			V247.198h24.812v104.142c0,19.342,4.772,34.02,14.328,44.034c9.55,10.02,23.18,15.026,40.888,15.026
			c19.336,0,34.598-5.881,45.78-17.647c11.184-11.763,16.775-28.133,16.775-49.101v-96.454H1609.855z"/>
		<path fill="#F5F5F5" d="M1729.197,255.236c11.531-6.291,25.801-9.437,42.809-9.437v24.114l-5.939-0.35
			c-19.342,0-34.484,5.94-45.432,17.822c-10.953,11.883-16.426,28.542-16.426,49.975v93.658h-24.812V247.198h23.764v35.995
			C1708.982,270.847,1717.664,261.526,1729.197,255.236z"/>
		<path fill="#F5F5F5" d="M1842.426,420.884c-14.328-7.918-25.572-19.046-33.725-33.374c-8.158-14.328-12.232-30.459-12.232-48.402
			c0-17.938,4.074-34.013,12.232-48.227c8.152-14.208,19.396-25.276,33.725-33.199c14.328-7.918,30.578-11.883,48.75-11.883
			c15.842,0,29.994,3.091,42.461,9.262c12.461,6.176,22.307,15.201,29.531,27.084l-18.523,12.581
			c-6.061-9.087-13.748-15.901-23.064-20.444c-9.32-4.543-19.455-6.814-30.404-6.814c-13.279,0-25.221,2.97-35.82,8.911
			c-10.604,5.941-18.871,14.389-24.812,25.337c-5.941,10.953-8.912,23.414-8.912,37.393c0,14.214,2.971,26.735,8.912,37.568
			c5.941,10.834,14.209,19.221,24.812,25.162c10.6,5.94,22.541,8.911,35.82,8.911c10.949,0,21.084-2.211,30.404-6.64
			c9.316-4.423,17.004-11.183,23.064-20.27l18.523,12.581c-7.225,11.882-17.125,20.914-29.705,27.084
			c-12.582,6.176-26.682,9.261-42.287,9.261C1873.004,432.766,1856.754,428.807,1842.426,420.884z"/>
		<path fill="#F5F5F5" d="M2118.855,404.634c9.666-4.074,17.879-10.075,24.639-17.998l13.979,16.076
			c-8.158,9.785-18.293,17.244-30.404,22.365c-12.117,5.128-25.512,7.688-40.189,7.688c-18.871,0-35.645-4.019-50.322-12.057
			s-26.096-19.16-34.25-33.374c-8.156-14.208-12.23-30.284-12.23-48.228c0-17.938,3.898-34.013,11.707-48.227
			c7.803-14.208,18.576-25.276,32.326-33.199c13.744-7.918,29.355-11.883,46.828-11.883c16.307,0,31.043,3.729,44.209,11.184
			c13.16,7.459,23.645,17.823,31.453,31.103c7.803,13.28,11.936,28.428,12.406,45.432l-150.973,29.355
			c4.658,14.912,13.105,26.619,25.338,35.121c12.23,8.508,26.848,12.756,43.857,12.756
			C2098.641,410.75,2109.186,408.713,2118.855,404.634z M2046.516,276.029c-10.135,5.941-18.059,14.214-23.764,24.812
			c-5.713,10.604-8.562,22.775-8.562,36.52c0,3.495,0.115,6.062,0.35,7.688l129.654-25.162
			c-2.797-15.376-9.906-28.012-21.318-37.917c-11.418-9.9-25.396-14.853-41.938-14.853
			C2068.123,267.118,2056.65,270.088,2046.516,276.029z"/>
	</g>
	<g>
		<linearGradient id="SVGID_1_" gradientUnits="userSpaceOnUse" x1="749.1279" y1="584.2939" x2="601.8261" y2="850.0333">
			<stop  offset="0" style="stop-color:#A93DFF"/>
			<stop  offset="0.1764" style="stop-color:#A63CFB"/>
			<stop  offset="0.3543" style="stop-color:#9C37EF"/>
			<stop  offset="0.533" style="stop-color:#8C30DB"/>
			<stop  offset="0.7123" style="stop-color:#7625BE"/>
			<stop  offset="0.8904" style="stop-color:#5A189A"/>
			<stop  offset="1" style="stop-color:#450E80"/>
		</linearGradient>
		<path fill="url(#SVGID_1_)" d="M909.848,673.383h-448.4l59.443,91.043l64.498,76.496l85.795,44.436l55.58,0.199
			C833.393,885.557,909.848,758.742,909.848,673.383z"/>
		<radialGradient id="SVGID_2_" cx="400.9873" cy="491.5713" r="444.2753" gradientUnits="userSpaceOnUse">
			<stop  offset="0" style="stop-color:#450E80"/>
			<stop  offset="0.1096" style="stop-color:#5A189A"/>
			<stop  offset="0.2877" style="stop-color:#7625BE"/>
			<stop  offset="0.467" style="stop-color:#8C30DB"/>
			<stop  offset="0.6457" style="stop-color:#9C37EF"/>
			<stop  offset="0.8236" style="stop-color:#A63CFB"/>
			<stop  offset="1" style="stop-color:#A93DFF"/>
		</radialGradient>
		<path fill="url(#SVGID_2_)" d="M395.554,406.679L787,406.429c0,0,38.916,27.36,38.916,82.954
			c0,55.593-38.916,82.953-38.916,82.953l-391.446,0.25V406.679z"/>
		<linearGradient id="SVGID_3_" gradientUnits="userSpaceOnUse" x1="716.1621" y1="354.0957" x2="630.0408" y2="103.9811">
			<stop  offset="0" style="stop-color:#A93DFF"/>
			<stop  offset="0.1764" style="stop-color:#A63CFB"/>
			<stop  offset="0.3543" style="stop-color:#9C37EF"/>
			<stop  offset="0.533" style="stop-color:#8C30DB"/>
			<stop  offset="0.7123" style="stop-color:#7625BE"/>
			<stop  offset="0.8904" style="stop-color:#5A189A"/>
			<stop  offset="1" style="stop-color:#450E80"/>
		</linearGradient>
		<path fill="url(#SVGID_3_)" d="M846.182,306.48c27.277,0.003,63.898-24.704,64.332-85.215
			c0.584-81.626-99.43-127.061-177.752-127.061h-58.664l-84.916,23.846l-66.336,42.333l-68.9,146.1L846.182,306.48L846.182,306.48z"
			/>
		<linearGradient id="SVGID_4_" gradientUnits="userSpaceOnUse" x1="910.5166" y1="200.3438" x2="453.9458" y2="200.3438">
			<stop  offset="0" style="stop-color:#A93DFF;stop-opacity:0"/>
			<stop  offset="0.2087" style="stop-color:#A63CFC;stop-opacity:0.2087"/>
			<stop  offset="0.3833" style="stop-color:#9E38F1;stop-opacity:0.3833"/>
			<stop  offset="0.5456" style="stop-color:#9132E0;stop-opacity:0.5456"/>
			<stop  offset="0.7006" style="stop-color:#7D28C8;stop-opacity:0.7006"/>
			<stop  offset="0.8502" style="stop-color:#641DA8;stop-opacity:0.8502"/>
			<stop  offset="0.994" style="stop-color:#460F82;stop-opacity:0.994"/>
			<stop  offset="1" style="stop-color:#450E80"/>
		</linearGradient>
		<path fill="url(#SVGID_4_)" d="M846.182,306.48c27.277,0.003,63.898-24.704,64.332-85.215
			c0.584-81.626-99.43-127.061-177.752-127.061h-58.664l-84.916,23.846l-66.336,42.333l-68.9,146.1L846.182,306.48L846.182,306.48z"
			/>
		<linearGradient id="SVGID_5_" gradientUnits="userSpaceOnUse" x1="668.5005" y1="212.3423" x2="658.852" y2="322.6251">
			<stop  offset="0" style="stop-color:#A93DFF"/>
			<stop  offset="0.1489" style="stop-color:#A53BF9"/>
			<stop  offset="0.3381" style="stop-color:#9835EA"/>
			<stop  offset="0.5491" style="stop-color:#842BD0"/>
			<stop  offset="0.7746" style="stop-color:#671EAC"/>
			<stop  offset="1" style="stop-color:#450E80"/>
		</linearGradient>
		<path fill="url(#SVGID_5_)" d="M526.518,221.383h245.33c0,46.473,33.281,85.096,74.334,85.096l-371.836,0.004L526.518,221.383z"/>
		<linearGradient id="SVGID_6_" gradientUnits="userSpaceOnUse" x1="286.0669" y1="380.3105" x2="835.8431" y2="548.394">
			<stop  offset="0" style="stop-color:#A93DFF"/>
			<stop  offset="0.1764" style="stop-color:#A63CFB"/>
			<stop  offset="0.3543" style="stop-color:#9C37EF"/>
			<stop  offset="0.533" style="stop-color:#8C30DB"/>
			<stop  offset="0.7123" style="stop-color:#7625BE"/>
			<stop  offset="0.8904" style="stop-color:#5A189A"/>
			<stop  offset="1" style="stop-color:#450E80"/>
		</linearGradient>
		<path fill="url(#SVGID_6_)" d="M593.432,885.057c-175.857,0-318.416-177.148-318.416-395.673
			c0-218.525,142.559-395.675,318.416-395.675l139.33,0.5c-145.354,0-263.188,177.149-263.188,395.675
			c0,218.525,117.834,395.673,263.188,395.673L593.432,885.057z"/>
	</g>
</g>
</svg>
