<?xml version="1.0" encoding="utf-8"?>
<!-- Generator: Adobe Illustrator 15.1.0, SVG Export Plug-In . SVG Version: 6.00 Build 0)  -->
<!DOCTYPE svg PUBLIC "-//W3C//DTD SVG 1.1//EN" "http://www.w3.org/Graphics/SVG/1.1/DTD/svg11.dtd">
<svg version="1.1" id="Lager_1" xmlns="http://www.w3.org/2000/svg" xmlns:xlink="http://www.w3.org/1999/xlink" x="0px" y="0px"
	 width="827px" height="229px" viewBox="0 0 827 229" enable-background="new 0 0 827 229" xml:space="preserve">
<g>
	<defs>
		<path id="SVGID_1_" d="M13.398,50.923c-0.781,19.457,8.747,31.314,21.674,34.523c-4.949-2.598-11.046-10.232-10.982-20.611
			c7.944,15.004,20.4,19.641,27.803,21.307c7.862,1.771,17.536,3.248,23.85,7.773c6.313,4.528,3.617,9.949,7.927,13.13
			c3.102,2.289,9.55-0.995,11.28-2.977c0.122,1.976-1.483,8.48-2.471,10.271c-1.526,2.771,1.151,2.544,1.961,6.627
			c1.313,6.619-19.475,14.752-16.373,11.541c5.589-5.784-11.333-11.899-17.122-8.289c-7.703,4.803-12.216,6.196-11.166,4.394
			c1.455-2.497,4.109-7.128-2.846-5.935c-6.956,1.193-13.407,4.097-14.243,3.86c-2.857-0.806,8.584-5.112,8.037-11.133
			c-0.712-7.818-6.714-6.188-12.897-4.556c-3.707,0.978-7.479,1.957-10.211,0.896l-9.215,21.769
			c16.67,13.926,37.651,21.746,57.062,21.746c38.363,0,59.374-21.663,59.374-45.979c0-19.896-11.419-32.274-31.287-39.349
			l-17.127-6.853c-14.845-5.306-23.293-7.737-23.293-14.368c0-6.632,5.938-9.727,14.615-9.727c14.158,0,22.607,3.536,33.341,10.39
			l19.64-23.874C106.342,12.458,87.616,6.269,70.032,6.269C36.234,6.269,15.175,24.449,13.398,50.923"/>
	</defs>
	<clipPath id="SVGID_2_">
		<use xlink:href="#SVGID_1_"  overflow="visible"/>
	</clipPath>
	
		<linearGradient id="SVGID_3_" gradientUnits="userSpaceOnUse" x1="-206.7881" y1="743.8936" x2="-205.7881" y2="743.8936" gradientTransform="matrix(0 148.9921 148.9921 0 -110767.5 30816)">
		<stop  offset="0" style="stop-color:#E6007E"/>
		<stop  offset="0.1609" style="stop-color:#E1017E"/>
		<stop  offset="0.3417" style="stop-color:#D4057F"/>
		<stop  offset="0.5323" style="stop-color:#BD0B80"/>
		<stop  offset="0.7297" style="stop-color:#9E1481"/>
		<stop  offset="0.9304" style="stop-color:#762082"/>
		<stop  offset="1" style="stop-color:#662483"/>
	</linearGradient>
	<rect x="8.403" y="6.269" clip-path="url(#SVGID_2_)" fill="url(#SVGID_3_)" width="116.437" height="148.992"/>
</g>
<g>
	<defs>
		<path id="SVGID_4_" d="M57.741,98.036c0.993,3.995,6.471,7.25,13.971,7.089c1.013-0.021,1.587-1.07,0.918-1.664
			c-3.133-2.778-10.545-7.339-13.617-7.339C57.945,96.122,57.401,96.671,57.741,98.036"/>
	</defs>
	<clipPath id="SVGID_5_">
		<use xlink:href="#SVGID_4_"  overflow="visible"/>
	</clipPath>
	
		<linearGradient id="SVGID_6_" gradientUnits="userSpaceOnUse" x1="-206.585" y1="744.2656" x2="-205.585" y2="744.2656" gradientTransform="matrix(0 160.6561 160.6561 0 -119505.375 33190.625)">
		<stop  offset="0" style="stop-color:#E6007E"/>
		<stop  offset="0.1609" style="stop-color:#E1017E"/>
		<stop  offset="0.3417" style="stop-color:#D4057F"/>
		<stop  offset="0.5323" style="stop-color:#BD0B80"/>
		<stop  offset="0.7297" style="stop-color:#9E1481"/>
		<stop  offset="0.9304" style="stop-color:#762082"/>
		<stop  offset="1" style="stop-color:#662483"/>
	</linearGradient>
	<rect x="57.401" y="96.122" clip-path="url(#SVGID_5_)" fill="url(#SVGID_6_)" width="15.896" height="9.164"/>
</g>
<g>
	<defs>
		<path id="SVGID_7_" d="M179.842,80.103c0-29.86,9.987-45.742,25.808-45.742s25.807,15.882,25.807,45.742
			c0,31-9.986,47.066-25.807,47.066S179.842,111.103,179.842,80.103 M144.648,80.103c0,49.16,24.878,75.157,61.001,75.157
			c36.124,0,61-25.997,61-75.157c0-48.021-24.876-73.834-61-73.834C169.526,6.269,144.648,32.083,144.648,80.103"/>
	</defs>
	<clipPath id="SVGID_8_">
		<use xlink:href="#SVGID_7_"  overflow="visible"/>
	</clipPath>
	
		<linearGradient id="SVGID_9_" gradientUnits="userSpaceOnUse" x1="-206.7881" y1="743.8926" x2="-205.7881" y2="743.8926" gradientTransform="matrix(0 148.9921 148.9921 0 -110628.5 30816)">
		<stop  offset="0" style="stop-color:#E6007E"/>
		<stop  offset="0.1609" style="stop-color:#E1017E"/>
		<stop  offset="0.3417" style="stop-color:#D4057F"/>
		<stop  offset="0.5323" style="stop-color:#BD0B80"/>
		<stop  offset="0.7297" style="stop-color:#9E1481"/>
		<stop  offset="0.9304" style="stop-color:#762082"/>
		<stop  offset="1" style="stop-color:#662483"/>
	</linearGradient>
	<rect x="144.648" y="6.269" clip-path="url(#SVGID_8_)" fill="url(#SVGID_9_)" width="122.001" height="148.992"/>
</g>
<g>
	<defs>
		<path id="SVGID_10_" d="M367.123,8.916v91.681c0,17.201-7.077,26.573-21.434,26.573c-14.292,0-20.97-9.372-20.97-26.573V8.916
			h-34.393v88.376c0,37.319,18.454,57.969,55.362,57.969c36.843,0,54.559-20.649,54.559-57.969V8.916H367.123z"/>
	</defs>
	<clipPath id="SVGID_11_">
		<use xlink:href="#SVGID_10_"  overflow="visible"/>
	</clipPath>
	
		<linearGradient id="SVGID_12_" gradientUnits="userSpaceOnUse" x1="-206.8369" y1="743.8008" x2="-205.8369" y2="743.8008" gradientTransform="matrix(0 146.3456 146.3456 0 -108506.875 30278.75)">
		<stop  offset="0" style="stop-color:#E6007E"/>
		<stop  offset="0.1609" style="stop-color:#E1017E"/>
		<stop  offset="0.3417" style="stop-color:#D4057F"/>
		<stop  offset="0.5323" style="stop-color:#BD0B80"/>
		<stop  offset="0.7297" style="stop-color:#9E1481"/>
		<stop  offset="0.9304" style="stop-color:#762082"/>
		<stop  offset="1" style="stop-color:#662483"/>
	</linearGradient>
	<rect x="290.327" y="8.916" clip-path="url(#SVGID_11_)" fill="url(#SVGID_12_)" width="109.921" height="146.346"/>
</g>
<g>
	<defs>
		<path id="SVGID_13_" d="M465.654,34.728h16.74c18.029,0,27.703,4.768,27.703,18.959c0,14.066-9.674,21.42-27.703,21.42h-16.74
			V34.728z M431.264,8.916v143.699h34.391V100.92h18.027l28.951,51.694h38.397l-34.281-57.452
			c16.195-6.937,27.004-20.36,27.004-41.476c0-34.188-26.437-44.771-58.566-44.771H431.264z"/>
	</defs>
	<clipPath id="SVGID_14_">
		<use xlink:href="#SVGID_13_"  overflow="visible"/>
	</clipPath>
	
		<linearGradient id="SVGID_15_" gradientUnits="userSpaceOnUse" x1="-206.8896" y1="743.7051" x2="-205.8896" y2="743.7051" gradientTransform="matrix(0 143.6992 143.6992 0 -106378.75 29738.75)">
		<stop  offset="0" style="stop-color:#E6007E"/>
		<stop  offset="0.1609" style="stop-color:#E1017E"/>
		<stop  offset="0.3417" style="stop-color:#D4057F"/>
		<stop  offset="0.5323" style="stop-color:#BD0B80"/>
		<stop  offset="0.7297" style="stop-color:#9E1481"/>
		<stop  offset="0.9304" style="stop-color:#762082"/>
		<stop  offset="1" style="stop-color:#662483"/>
	</linearGradient>
	<rect x="431.264" y="8.916" clip-path="url(#SVGID_14_)" fill="url(#SVGID_15_)" width="119.767" height="143.699"/>
</g>
<g>
	<defs>
		<path id="SVGID_16_" d="M567.354,81.56c0,48.462,32.554,73.7,70.257,73.7c20.416,0,37.39-7.24,49.765-21.106l-18.896-19.679
			c-7.359,7.599-16.384,12.694-27.327,12.694c-22.879,0-38.604-17.144-38.604-46.686c0-28.784,15.725-46.123,37.26-46.123
			c10.953,0,19.112,3.957,26.354,10.305l18.896-20.119c-10.252-9.578-26.025-18.277-45.251-18.277
			C599.171,6.269,567.354,33.919,567.354,81.56"/>
	</defs>
	<clipPath id="SVGID_17_">
		<use xlink:href="#SVGID_16_"  overflow="visible"/>
	</clipPath>
	
		<linearGradient id="SVGID_18_" gradientUnits="userSpaceOnUse" x1="-206.7881" y1="743.8936" x2="-205.7881" y2="743.8936" gradientTransform="matrix(0 148.9921 148.9921 0 -110206.75 30816)">
		<stop  offset="0" style="stop-color:#E6007E"/>
		<stop  offset="0.1609" style="stop-color:#E1017E"/>
		<stop  offset="0.3417" style="stop-color:#D4057F"/>
		<stop  offset="0.5323" style="stop-color:#BD0B80"/>
		<stop  offset="0.7297" style="stop-color:#9E1481"/>
		<stop  offset="0.9304" style="stop-color:#762082"/>
		<stop  offset="1" style="stop-color:#662483"/>
	</linearGradient>
	<rect x="567.354" y="6.269" clip-path="url(#SVGID_17_)" fill="url(#SVGID_18_)" width="120.021" height="148.992"/>
</g>
<g>
	<defs>
		<polygon id="SVGID_19_" points="715.88,8.916 715.88,152.615 818.741,152.615 818.741,125.345 750.206,125.345 750.206,92.273 
			806.456,92.273 806.456,65.003 750.206,65.003 750.206,36.185 816.414,36.185 816.414,8.916 		"/>
	</defs>
	<clipPath id="SVGID_20_">
		<use xlink:href="#SVGID_19_"  overflow="visible"/>
	</clipPath>
	
		<linearGradient id="SVGID_21_" gradientUnits="userSpaceOnUse" x1="-206.8896" y1="743.7051" x2="-205.8896" y2="743.7051" gradientTransform="matrix(0 143.6992 143.6992 0 -106102.5 29738.75)">
		<stop  offset="0" style="stop-color:#E6007E"/>
		<stop  offset="0.1609" style="stop-color:#E1017E"/>
		<stop  offset="0.3417" style="stop-color:#D4057F"/>
		<stop  offset="0.5323" style="stop-color:#BD0B80"/>
		<stop  offset="0.7297" style="stop-color:#9E1481"/>
		<stop  offset="0.9304" style="stop-color:#762082"/>
		<stop  offset="1" style="stop-color:#662483"/>
	</linearGradient>
	<rect x="715.88" y="8.916" clip-path="url(#SVGID_20_)" fill="url(#SVGID_21_)" width="102.861" height="143.699"/>
</g>
<text transform="matrix(1.0314 0 0 1 15.2168 222.4639)"><tspan x="0" y="0" fill="#FFFFFF" font-family="'OpenSans-Bold'" font-size="58.1737" letter-spacing="109.562">E</tspan><tspan x="143.053" y="0" fill="#FFFFFF" font-family="'OpenSans-Bold'" font-size="58.1737" letter-spacing="109.562">MP</tspan><tspan x="455.492" y="0" fill="#FFFFFF" font-family="'OpenSans-Bold'" font-size="58.1737" letter-spacing="109.562">IR</tspan><tspan x="734.098" y="0" fill="#FFFFFF" font-family="'OpenSans-Bold'" font-size="58.1737">E</tspan></text>
</svg>
